:SAMPLES-PER-SECOND 30
:FULLY-SPECIFIED
:DEGREES
95
root  -34.6058 34.9244 -4.76615 -11.486 -85.6083 4.39967
RightUpLeg  -41.3555 -17.9423 4.16229
RightLeg  45.2298 -1.54535 -1.99026
RightFoot  4.01513 1.60736 -11.5439
RightToes  0.000482159 0.542163 -0.142577
Spine  30.7726 -0.214543 19.9707
Spine1  -5.37817 5.11209 -0.188301
HEad  -14.9191 -8.02431 -9.321
LeftShoulder1  6.72952 -9.64417 -44.5646
LeftArm  -12.7098 27.2758 -33.001
LeftForeArm  37.6678 -37.8753 -6.41248
LeftHand  -0.25398 0.0180481 5.50724
RightShoulder  5.604 9.65804 36.5947
RightArm  -8.75663 -11.0511 13.852
RightForeArm  -11.1827 33.1735 7.96729
RightHand  -2.64095 6.63583 -25.4857
LeftUpLeg  -5.93156 17.796 7.56339
LeftLeg  79.0996 0.770639 6.68955
LeftFoot  -0.820613 0.609202 -6.19285
LeftToes  1.06246e-005 4.65855e-005 -8.18504e-006
96
root  -36.4476 35.132 -4.85255 -2.02207 -84.6116 -4.89633
RightUpLeg  -39.442 -17.0579 3.67045
RightLeg  48.8282 -2.92621 -3.92695
RightFoot  -1.77558 0.80855 -9.69211
RightToes  0.000482159 0.542163 -0.142577
Spine  33.3214 -1.04915 19.9276
Spine1  -5.53304 4.12541 3.95635
HEad  -20.2288 -7.18809 -10.4018
LeftShoulder1  7.01422 -10.1994 -44.5696
LeftArm  -13.5573 26.0094 -28.9037
LeftForeArm  39.4217 -40.592 -7.06683
LeftHand  -0.25398 0.0180481 5.50724
RightShoulder  5.83749 10.1016 36.901
RightArm  -10.0151 -0.876192 11.2091
RightForeArm  -10.1681 35.6775 8.6402
RightHand  -2.38705 5.76711 -24.8504
LeftUpLeg  -17.1196 13.1362 6.89108
LeftLeg  88.4884 -0.322667 6.63758
LeftFoot  -0.539912 0.337703 -3.47514
LeftToes  1.06246e-005 4.65855e-005 -8.18504e-006
97
root  -38.3518 35.6975 -4.89379 -0.479421 -83.8691 -5.64832
RightUpLeg  -36.197 -16.465 2.87527
RightLeg  49.2625 -3.63627 -4.88538
RightFoot  -5.67982 0.323351 -7.4321
RightToes  0.000482159 0.542163 -0.142577
Spine  34.2468 -1.14505 20.5679
Spine1  -5.69935 4.06332 5.58159
HEad  -23.0864 -7.48938 -11.2626
LeftShoulder1  7.29408 -10.7646 -44.518
LeftArm  -16.0869 25.0024 -24.8364
LeftForeArm  38.305 -40.9846 -7.25539
LeftHand  -0.25398 0.0180481 5.50724
RightShoulder  5.58541 9.65719 36.4455
RightArm  -13.6818 5.06551 10.8223
RightForeArm  -10.5856 39.3716 9.81842
RightHand  -2.46818 6.08406 -24.9801
LeftUpLeg  -28.1135 8.82533 5.59345
LeftLeg  91.5677 -0.692335 6.74069
LeftFoot  -3.31809 0.261087 -3.46348
LeftToes  1.06246e-005 4.65855e-005 -8.18504e-006
98
root  -40.3402 36.3688 -4.89198 0.920072 -85.5633 -6.25869
RightUpLeg  -32.9789 -14.9022 2.68729
RightLeg  48.8469 -3.68791 -4.88278
RightFoot  -8.34844 0.121701 -6.86348
RightToes  0.000482159 0.542163 -0.142577
Spine  34.5046 -0.240749 21.5882
Spine1  -5.45169 5.31916 4.84614
HEad  -23.6068 -8.26708 -11.7269
LeftShoulder1  7.25542 -10.9094 -43.7986
LeftArm  -19.1716 24.6902 -22.0819
LeftForeArm  35.5743 -40.0018 -7.13162
LeftHand  -0.25398 0.0180481 5.50724
RightShoulder  5.45586 9.52292 35.905
RightArm  -15.2776 7.4113 11.0642
RightForeArm  -10.6511 42.2662 10.8304
RightHand  -2.46835 6.08252 -24.9823
LeftUpLeg  -36.6724 7.77318 5.02379
LeftLeg  88.6984 -0.337884 7.87041
LeftFoot  -3.77675 0.264145 -3.6901
LeftToes  1.06246e-005 4.65855e-005 -8.18504e-006
99
root  -42.4503 37.0766 -4.96243 -13.2007 -87.2728 8.29917
RightUpLeg  -28.9788 -13.5177 1.46748
RightLeg  47.9509 -3.56132 -4.57869
RightFoot  -11.4511 -0.0790741 -6.01766
RightToes  0.000482159 0.542163 -0.142577
Spine  34.2221 1.17852 20.4927
Spine1  -5.20089 6.39559 4.22703
HEad  -22.4212 -8.89958 -12.0411
LeftShoulder1  6.8374 -10.4164 -42.6735
LeftArm  -21.5484 25.2775 -20.0135
LeftForeArm  34.3584 -38.8123 -6.86369
LeftHand  -0.25398 0.0180481 5.50724
RightShoulder  5.58774 9.82143 35.9519
RightArm  -13.6575 7.36745 11.0748
RightForeArm  -9.77871 43.6374 11.2977
RightHand  -2.23137 5.15367 -24.5742
LeftUpLeg  -42.4908 7.55883 3.47567
LeftLeg  81.569 0.993855 10.6918
LeftFoot  -2.80214 0.109382 -1.2185
LeftToes  1.06246e-005 4.65855e-005 -8.18504e-006
100
root  -44.6356 37.6448 -5.07483 -36.8304 -87.0709 31.9781
RightUpLeg  -24.1961 -12.6429 -0.390876
RightLeg  46.9573 -4.01062 -4.93192
RightFoot  -14.3747 -0.206467 -4.09444
RightToes  0.000482159 0.542163 -0.142577
Spine  33.283 2.16938 18.3731
Spine1  -5.18298 6.52028 4.33639
HEad  -20.6439 -9.65591 -12.4488
LeftShoulder1  6.39895 -9.7276 -41.9705
LeftArm  -22.9177 26.3102 -17.4102
LeftForeArm  34.0894 -36.9924 -6.37882
LeftHand  -0.25398 0.0180481 5.50724
RightShoulder  5.72695 9.94029 36.6026
RightArm  -10.7008 5.88225 11.5952
RightForeArm  -8.87109 43.5025 11.1942
RightHand  -2.13833 4.81384 -24.3373
LeftUpLeg  -45.8633 6.44065 1.39312
LeftLeg  71.5745 3.4094 12.3738
LeftFoot  -3.10175 -0.0431632 0.851798
LeftToes  1.06246e-005 4.65855e-005 -8.18504e-006
101
root  -46.8481 38.0262 -5.12271 -51.2236 -87.4819 46.1115
RightUpLeg  -19.4319 -11.0055 -0.799362
RightLeg  46.2603 -4.89683 -5.79497
RightFoot  -16.0656 -0.215799 -2.54916
RightToes  0.000482159 0.542163 -0.142577
Spine  32.1923 2.57458 17.8608
Spine1  -4.92497 6.58685 3.64222
HEad  -19.116 -10.436 -12.6744
LeftShoulder1  6.07384 -9.19132 -41.4809
LeftArm  -24.0644 28.0503 -14.7641
LeftForeArm  32.6413 -34.7253 -5.86604
LeftHand  -0.25398 0.0180481 5.50724
RightShoulder  5.77074 9.78513 37.4036
RightArm  -7.76095 3.6666 13.1963
RightForeArm  -8.37379 41.9808 10.599
RightHand  -2.22695 5.25648 -24.3042
LeftUpLeg  -46.5622 6.92872 0.297677
LeftLeg  58.7133 5.43839 10.2486
LeftFoot  -3.80776 -0.000689184 0.364425
LeftToes  1.06246e-005 4.65855e-005 -8.18504e-006
102
root  -49.0246 38.3594 -5.1112 111.121 -89.9029 -116.53
RightUpLeg  -14.971 -8.17259 0.189365
RightLeg  45.2483 -5.26017 -5.98755
RightFoot  -16.9426 -0.182576 -1.39751
RightToes  0.000482159 0.542163 -0.142577
Spine  31.2619 2.81946 18.6049
Spine1  -3.87074 7.23084 1.46368
HEad  -18.0583 -10.2293 -12.3243
LeftShoulder1  5.53042 -8.3625 -40.295
LeftArm  -25.9735 31.0826 -13.4552
LeftForeArm  30.9757 -33.2864 -5.59868
LeftHand  -0.25398 0.0180481 5.50724
RightShoulder  5.81896 9.65864 38.1583
RightArm  -4.86868 0.99817 15.5221
RightForeArm  -8.2581 39.8761 9.85302
RightHand  -2.19651 5.24885 -23.999
LeftUpLeg  -44.7096 10.4663 -0.234922
LeftLeg  42.4541 5.9552 6.3221
LeftFoot  -3.30523 0.026294 -0.0965193
LeftToes  1.06246e-005 4.65855e-005 -8.18504e-006
103
root  -51.2483 38.5882 -5.06375 169.549 -85.7661 -175.139
RightUpLeg  -10.5368 -5.17305 1.0949
RightLeg  43.9041 -4.37727 -4.81576
RightFoot  -17.9688 -0.0875658 0.566142
RightToes  0.000482159 0.542163 -0.142577
Spine  29.9261 3.17865 19.1949
Spine1  -2.18938 8.1018 -1.0824
HEad  -17.0787 -8.62963 -11.4861
LeftShoulder1  4.55217 -6.70079 -38.3685
LeftArm  -29.3176 35.0806 -13.8285
LeftForeArm  31.6531 -33.26 -5.55493
LeftHand  -0.25398 0.0180481 5.50724
RightShoulder  5.86939 9.58632 38.7634
RightArm  -2.7297 -2.65238 18.2975
RightForeArm  -8.6421 38.393 9.38581
RightHand  -2.06716 4.80369 -23.5834
LeftUpLeg  -40.6961 15.1643 -0.408576
LeftLeg  24.2772 6.87934 3.2669
LeftFoot  -2.66254 0.0200036 -0.0466037
LeftToes  1.06246e-005 4.65855e-005 -8.18504e-006
104
root  -53.6578 38.5588 -4.96628 159.471 -81.4999 -165.317
RightUpLeg  -5.97369 -2.51173 1.72787
RightLeg  43.0364 -2.73803 -3.03967
RightFoot  -19.0269 0.0397543 2.52952
RightToes  0.000482159 0.542163 -0.142577
Spine  27.8199 3.75841 19.8481
Spine1  -0.448659 9.00023 -3.16825
HEad  -15.2573 -6.33718 -10.4146
LeftShoulder1  3.42338 -4.52428 -36.4406
LeftArm  -33.6127 39.7836 -15.1817
LeftForeArm  34.0177 -34.5468 -5.7453
LeftHand  -0.25398 0.0180481 5.50724
RightShoulder  5.77264 9.35901 38.8012
RightArm  -2.32363 -7.83879 21.6716
RightForeArm  -9.30548 37.9047 9.26845
RightHand  -2.04963 4.74152 -23.5261
LeftUpLeg  -34.3976 15.7083 3.52195
LeftLeg  8.52894 13.5946 -0.532003
LeftFoot  -3.80678 0.087189 -1.03047
LeftToes  1.06246e-005 4.65855e-005 -8.18504e-006
105
root  -56.1681 38.3445 -4.85661 158.113 -76.7203 -163.855
RightUpLeg  -1.90041 0.0121672 2.38635
RightLeg  42.5626 -1.29143 -1.57632
RightFoot  -19.9985 0.0973915 3.09585
RightToes  0.000482159 0.542163 -0.142577
Spine  25.3149 4.50342 20.3123
Spine1  0.781601 9.9345 -4.80496
HEad  -12.3751 -3.57517 -8.80635
LeftShoulder1  2.48094 -2.56645 -34.6304
LeftArm  -36.9877 45.731 -17.073
LeftForeArm  35.0608 -36.803 -6.27097
LeftHand  -0.25398 0.0180481 5.50724
RightShoulder  5.4078 8.7949 37.9226
RightArm  -2.70353 -13.9273 25.5128
RightForeArm  -9.53231 37.8095 9.25122
RightHand  -2.08762 4.90623 -23.5815
LeftUpLeg  -27.9267 10.4313 11.1661
LeftLeg  -0.139018 23.4476 -5.17369
LeftFoot  -5.83752 0.156224 -2.47084
LeftToes  1.06246e-005 4.65855e-005 -8.18504e-006
106
root  -58.6414 38.0374 -4.81479 159.549 -72.6651 -164.003
RightUpLeg  0.7789 1.77828 1.94952
RightLeg  42.1615 0.810624 0.479589
RightFoot  -21.7511 0.206275 3.79866
RightToes  0.000482159 0.542163 -0.142577
Spine  22.5195 5.27611 18.7189
Spine1  0.377102 10.1306 -5.61544
HEad  -9.90208 -0.0318117 -6.25182
LeftShoulder1  1.79259 -1.07711 -32.8458
LeftArm  -38.1895 52.0585 -19.5295
LeftForeArm  34.0662 -38.2201 -6.70911
LeftHand  -0.25398 0.0180481 5.50724
RightShoulder  4.80281 7.83579 36.3533
RightArm  -2.49318 -19.7088 29.1765
RightForeArm  -8.87768 37.5483 9.13273
RightHand  -1.99865 4.61765 -23.2301
LeftUpLeg  -26.1992 11.8111 11.771
LeftLeg  0.5103 19.2426 -4.90903
LeftFoot  -4.24973 0.21583 -3.14216
LeftToes  1.06246e-005 4.65855e-005 -8.18504e-006
107
root  -60.9497 37.6474 -4.89319 164.243 -71.0895 -166.516
RightUpLeg  1.44332 2.21948 -0.773157
RightLeg  43.1774 4.31378 4.0652
RightFoot  -22.7164 0.515049 6.78579
RightToes  0.000482159 0.542163 -0.142577
Spine  20.1473 5.67839 13.6095
Spine1  -2.10239 8.81997 -4.74588
HEad  -10.0874 3.50382 -3.1756
LeftShoulder1  1.45782 -0.282752 -32.2034
LeftArm  -37.9652 55.5345 -22.4694
LeftForeArm  32.4569 -36.3745 -6.31775
LeftHand  -0.25398 0.0180481 5.50724
RightShoulder  4.21009 6.78991 34.9441
RightArm  -2.45773 -24.7462 31.7913
RightForeArm  -8.26335 37.3321 9.03089
RightHand  -1.82566 3.96709 -22.7031
LeftUpLeg  -28.7117 12.5533 9.74031
LeftLeg  6.07218 11.6994 -2.98062
LeftFoot  4.05689 0.313583 -2.50028
LeftToes  1.06246e-005 4.65855e-005 -8.18504e-006
